# xmcd
#
# Track frame offsets:
#	150
#	14160
#	31081
#	46711
#	61153
#	75535
#	94862
#	120039
#	135008
#	160614
#	175012
#	192919
#	208604
#	233785
#	246295
#	261977
#	287160
#	299585
#
# Disc length: 4494 seconds
#
# Revision: 1
# Processed by: cddbd v1.5.2PL0 Copyright (c) Steve Scherf et al.
# Submitted via: audiograbber 1.83.01
#
DISCID=eb118c12
DTITLE=Al Green - The Legendary Hi Records Albums Volume2 - Disc1
DYEAR=2006
DGENRE=
TTITLE0=Call Me (Come Back Home)
TTITLE1=Have You Been Making Out OK
TTITLE2=Stand Up
TTITLE3=I'm So Lonesome I Could Cry
TTITLE4=Your Love Is Like The Morning Sun
TTITLE5=Here I Am (Come And Take Me)
TTITLE6=Funny How Time Slips Away
TTITLE7=You Ought To Be With Me
TTITLE8=Jesus Is Waiting
TTITLE9=Livin' For You
TTITLE10=Home Again
TTITLE11=Free At Last
TTITLE12=Let's Get Married
TTITLE13=So Good To Be Here
TTITLE14=Sweet Sixteen
TTITLE15=Unchained Melody
TTITLE16=My God Is Real
TTITLE17=Beware
EXTD=
EXTT0=
EXTT1=
EXTT2=
EXTT3=
EXTT4=
EXTT5=
EXTT6=
EXTT7=
EXTT8=
EXTT9=
EXTT10=
EXTT11=
EXTT12=
EXTT13=
EXTT14=
EXTT15=
EXTT16=
EXTT17=
PLAYORDER=
